<?xml version="1.0" encoding="UTF-8" standalone="no"?>
<!DOCTYPE svg PUBLIC "-//W3C//DTD SVG 1.1//EN" "http://www.w3.org/Graphics/SVG/1.1/DTD/svg11.dtd">
<svg width="100%" height="100%" viewBox="0 0 4000 4000" version="1.1" xmlns="http://www.w3.org/2000/svg" xmlns:xlink="http://www.w3.org/1999/xlink" xml:space="preserve" xmlns:serif="http://www.serif.com/" style="fill-rule:evenodd;clip-rule:evenodd;stroke-linejoin:round;stroke-miterlimit:2;">
    <g transform="matrix(1,0,0,1,-8416,0)">
        <g id="Artboard3" transform="matrix(1,0,0,1,-0.333333,0)">
            <rect x="8416.33" y="0" width="4000" height="4000" style="fill:none;"/>
            <clipPath id="_clip1">
                <rect x="8416.33" y="0" width="4000" height="4000"/>
            </clipPath>
            <g clip-path="url(#_clip1)">
                <g id="LOGO" transform="matrix(1,0,0,1,8416.33,8.52651e-14)">
                    <g transform="matrix(3.74046,0,0,3.74046,-4619.9,-3195.8)">
                        <path d="M1642.11,1657.26C1644.1,1594.45 1600.33,1574.08 1576.51,1565.83C1556.11,1558.76 1476.13,1557.95 1458.73,1549.06C1390.62,1514.23 1422.72,1433.78 1435.86,1429.63C1402.1,1364 1375.4,1114.11 1559.5,1019.64C1747.53,923.157 1903.33,1068.01 1903.33,1068.01C1795.29,1236.73 1776.25,1291.16 1773.6,1316.37C1771.24,1338.75 1936.12,1078.51 1936.32,1080.63C1963.07,1084.96 1969.59,1105.21 1969.59,1105.21C1951.78,1122.21 1817.68,1324.05 1830.63,1318.85C1843.59,1313.66 1986.73,1137.9 1986.73,1137.9C2018.49,1175.29 2031.74,1245.94 2023.65,1316.19C2015.57,1386.45 2000.61,1425.89 2010.89,1437.3C2021.16,1448.72 2028.9,1470.23 2026.98,1491.58C2025.07,1512.92 2009.5,1545.13 1963.68,1553.84C1917.86,1562.54 1916.04,1599.73 1913.13,1627.13C1910.22,1654.53 1889.34,1655.96 1886.24,1656.35C1874.93,1657.77 1642.11,1657.26 1642.11,1657.26ZM1615.1,1223.99C1539.92,1223.99 1478.88,1285.23 1478.88,1360.67C1478.88,1436.11 1539.92,1497.35 1615.1,1497.35C1690.27,1497.35 1751.31,1436.11 1751.31,1360.67C1751.31,1285.23 1690.27,1223.99 1615.1,1223.99ZM1821.88,1371.15C1805.09,1466.08 1880.13,1465.33 1902.39,1464.41C1925.02,1463.46 1956.46,1433.47 1956.73,1392.71C1956.77,1386.49 1957.44,1377.62 1955.59,1370.41C1941.79,1316.58 1828.68,1332.66 1821.88,1371.15ZM1778.81,1552.07C1800.67,1568.44 1810.63,1566.06 1821.41,1554.19C1832.19,1542.33 1823.45,1523.22 1811.77,1500.36C1803.56,1483.2 1788.4,1446.72 1776.65,1446.72C1764.9,1446.72 1748.57,1482.8 1741.26,1500.36C1730.79,1523.8 1721.38,1545.22 1732.76,1556.5C1744.14,1567.79 1758.9,1565.83 1778.81,1552.07Z" style="fill:rgb(27,2,60);"/>
                    </g>
                    <g id="Sword">
                        <g transform="matrix(3.74046,0,0,3.74046,-4619.9,-3195.8)">
                            <path d="M1565.03,1589.53L1455,1752.01L1400.97,1917.54C1400.97,1917.54 1398.84,1924.39 1403.53,1923.73C1408.21,1923.07 1551.32,1808.78 1551.32,1808.78L1600.16,1747.08L1600.23,1712.72C1560.33,1751.97 1522.21,1783.99 1481.28,1820.26C1489.47,1782.06 1555.22,1695.21 1600.15,1619.67C1594.47,1606.32 1581.86,1597.59 1565.03,1589.53Z" style="fill:rgb(27,2,60);"/>
                        </g>
                        <g transform="matrix(3.73277,0.239811,-0.239811,3.73277,-4368.83,-3685.16)">
                            <path d="M2104.41,933.584C2121.51,928.605 2133.62,912.504 2133.62,893.882C2133.62,871.265 2115.18,852.903 2092.47,852.903C2069.75,852.903 2051.31,871.265 2051.31,893.882C2051.31,898.627 2051.47,902.919 2052.96,907.159C2052.99,907.189 2052.96,907.159 2052.96,907.159C2040.08,925.629 1975.64,1017.98 1975.64,1017.98L1858.09,964.558C1845.52,959.742 1842.72,969.412 1850.45,977.273C1935.94,1048.86 1994.63,1088.95 2129.11,1155.04C2141.66,1157.91 2146.03,1147.37 2138.7,1139.34L2039.04,1058.69L2104.41,933.584Z" style="fill:rgb(27,2,60);"/>
                        </g>
                    </g>
                    <g id="Aperture">
                        <g transform="matrix(3.41897,0,0,3.41897,-4125.14,-2767.07)">
                            <path d="M1556.81,1273.21C1534.99,1289.05 1513.73,1310.98 1507.65,1347.89C1506.89,1352.43 1508.5,1357.04 1511.92,1360.13C1537.16,1382.94 1555.85,1389.9 1571.21,1393.89C1555.17,1354.2 1553.09,1313.53 1556.81,1273.21Z" style="fill:rgb(27,2,60);"/>
                        </g>
                        <g transform="matrix(3.56984,0,0,3.56984,-4351.99,-2955.53)">
                            <path d="M1508.38,1361.78C1541.83,1392.59 1587.78,1411.63 1631.98,1407.41C1631.99,1407.41 1631.99,1407.41 1632,1407.42C1632,1407.42 1632,1407.43 1631.99,1407.43C1617.41,1424.49 1595.65,1440.08 1570.68,1451.8C1566.68,1453.66 1561.99,1453.27 1558.36,1450.76C1528.38,1430.09 1512.04,1396.74 1508.38,1361.78Z" style="fill:rgb(27,2,60);"/>
                        </g>
                        <g transform="matrix(3.54317,0,0,3.54317,-4299.78,-2916.11)">
                            <path d="M1569.83,1456.8C1611.08,1438.05 1645.65,1403.95 1669.74,1367.75C1679.45,1401.06 1674.27,1434.31 1671.72,1446.62C1670.96,1450.03 1668.86,1452.99 1665.88,1454.82C1653.81,1462.26 1619.02,1478.4 1569.83,1456.8Z" style="fill:rgb(27,2,60);"/>
                        </g>
                        <g transform="matrix(3.57512,0,0,3.57512,-4341.16,-2970.63)">
                            <path d="M1594.43,1313.05C1641.71,1305.8 1698.93,1313.71 1714.75,1332.24C1713,1309.15 1699.01,1287.29 1673.45,1269.99C1670.22,1267.81 1666.1,1265.75 1661.98,1263.76C1656.47,1261.1 1650.02,1261.25 1644.64,1264.15C1622.57,1276.1 1608.57,1295.19 1594.43,1313.05Z" style="fill:rgb(27,2,60);"/>
                        </g>
                        <g transform="matrix(3.50878,0,0,3.50878,-4248.27,-2893.87)">
                            <path d="M1563.6,1351.29C1583.49,1308.55 1628.62,1263.47 1648.85,1258.41C1617.39,1253.07 1588.2,1253.55 1566.68,1266.13C1562.62,1268.48 1560.04,1272.75 1559.82,1277.44C1558.77,1300.19 1558.99,1317.75 1563.6,1351.29Z" style="fill:rgb(27,2,60);"/>
                        </g>
                        <g transform="matrix(3.47546,0,0,3.47546,-4174.19,-2829.28)">
                            <path d="M1643.71,1316.53C1695.29,1317.05 1712.49,1331.57 1716.89,1340.2C1723.83,1353.76 1723.48,1406.35 1675.4,1449.67C1681.47,1403.81 1679.26,1354.45 1643.71,1316.53Z" style="fill:rgb(27,2,60);"/>
                        </g>
                    </g>
                </g>
            </g>
        </g>
    </g>
</svg>
